<?xml version="1.0" encoding="UTF-8" standalone="no"?>
<!-- Created with Inkscape (http://www.inkscape.org/) -->

<svg
   width="512"
   height="512"
   viewBox="0 0 135.46662 135.46667"
   version="1.1"
   id="svg1"
   inkscape:version="1.3.2 (091e20e, 2023-11-25)"
   sodipodi:docname="圖畫.svg"
   inkscape:export-filename="圖畫.png"
   inkscape:export-xdpi="60.476189"
   inkscape:export-ydpi="60.476189"
   xmlns:inkscape="http://www.inkscape.org/namespaces/inkscape"
   xmlns:sodipodi="http://sodipodi.sourceforge.net/DTD/sodipodi-0.dtd"
   xmlns="http://www.w3.org/2000/svg"
   xmlns:svg="http://www.w3.org/2000/svg">
  <sodipodi:namedview
     id="namedview1"
     pagecolor="#ffffff"
     bordercolor="#000000"
     borderopacity="0.25"
     inkscape:showpageshadow="2"
     inkscape:pageopacity="0.0"
     inkscape:pagecheckerboard="0"
     inkscape:deskcolor="#d1d1d1"
     inkscape:document-units="mm"
     inkscape:zoom="1.0166347"
     inkscape:cx="255.25392"
     inkscape:cy="300.00942"
     inkscape:window-width="1472"
     inkscape:window-height="919"
     inkscape:window-x="0"
     inkscape:window-y="37"
     inkscape:window-maximized="0"
     inkscape:current-layer="layer1" />
  <defs
     id="defs1" />
  <g
     inkscape:label="圖層 1"
     inkscape:groupmode="layer"
     id="layer1">
    <g
       id="g12"
       transform="matrix(1.2689424,0,0,1.4732105,-19.082405,-75.013077)">
      <path
         style="fill:#d40000;stroke:#edff00;stroke-width:0"
         d="M 63.24174,124.6617 C 22.381851,109.30671 21.601089,87.965877 21.601089,87.965877 c 0,0 46.064969,14.574223 40.079126,34.353533 -5.985844,19.77931 -50.489289,-84.062063 -22.38185,-41.640648 28.107441,42.421418 22.642104,42.941918 22.642104,42.941918 0,0 -47.36624,-65.844277 -21.861343,-53.612336 C 65.584025,82.240286 63.24174,124.6617 63.24174,124.6617 Z"
         id="path1" />
      <path
         style="fill:#d40000;stroke:#edff00;stroke-width:0"
         d="m 69.487836,131.4283 c 43.982934,-13.27295 37.216334,-34.353533 37.216334,-34.353533 0,0 3.3833,-21.080579 -17.697278,7.287113 C 67.926313,132.72957 68.44682,131.94881 68.44682,131.94881 L 103.32087,85.103081 82.760794,90.828669 67.926313,126.74373 c 3.383303,5.72559 1.561523,4.68457 1.561523,4.68457 z"
         id="path2" />
      <path
         style="fill:#d40000;stroke:#edff00;stroke-width:0"
         d="m 67.66606,133.25008 c 9.369144,-47.366236 18.738291,-62.200719 18.738291,-62.200719 0,0 -14.574226,-23.422867 -20.299817,-7.807622 -5.725589,15.615245 0,70.528851 0,70.528851 0,0 1.561526,-68.707073 -5.465334,-68.707073 -7.026862,0 -8.067878,24.724138 -8.067878,24.724138 z"
         id="path3" />
      <path
         style="fill:#d40000;stroke:#edff00;stroke-width:0"
         d="M 67.926313,109.04645 C 93.431212,67.926312 94.472228,98.636293 94.472228,98.636293 Z"
         id="path4" />
      <path
         style="fill:#d40000;stroke:#edff00;stroke-width:0"
         d="m 70.2686,125.70271 c 4.684572,-49.448267 4.684572,-49.448267 4.684572,-49.448267 0,0 51.009798,-54.132847 -4.684572,49.448267 z"
         id="path5" />
      <path
         style="fill:#d40000;stroke:#edff00;stroke-width:0"
         d="m 70.008345,128.045 c -4.42432,0 -29.929219,8.06788 -37.73684,0 -7.807622,-8.06788 38.257347,0.78076 31.750997,-2.08203 -6.506353,-2.8628 -38.25735,2.34228 -37.73684,-2.8628 0.520507,-5.20508 5.205081,-10.41016 5.205081,-10.41016 0,0 26.285661,7.28711 30.449726,10.93067 4.164066,3.64356 8.067876,4.42432 8.067876,4.42432 z"
         id="path6" />
      <path
         style="fill:#d40000;stroke:#edff00;stroke-width:0"
         d="M 71.049362,128.045 C 104.10163,115.81306 124.40144,111.38874 109.56696,122.57966 94.732483,133.77059 71.049362,128.045 71.049362,128.045 Z"
         id="path7" />
      <path
         style="fill:#ff6600;stroke:#edff00;stroke-width:0"
         d="m 66.625041,130.12703 c 0,0 -29.148455,-3.64355 -26.025406,-7.80762 3.123049,-4.16406 25.765154,5.98585 25.765154,5.98585 0,0 -36.956079,-25.5049 -24.724137,-24.20363 12.231941,1.30127 25.504899,22.38185 25.504899,22.38185 0,0 -33.83303,-34.093287 -22.38185,-33.05227 11.45118,1.041016 22.902357,30.97024 22.902357,30.97024 0,0 -23.943374,-41.640656 -15.615243,-39.298369 8.328128,2.342285 15.875497,41.120139 15.875497,41.120139 0,0 -11.451179,-58.817416 -1.561523,-47.886746 9.889654,10.930673 3.383301,45.804716 3.383301,45.804716 0,0 2.342288,-51.530305 8.067876,-41.120141 5.725591,10.410161 -4.684572,38.257351 -4.684572,38.257351 0,0 7.02686,-43.462433 12.752448,-27.84719 5.725591,15.61524 -13.793464,30.44973 -13.793464,30.44973 0,0 20.560072,-26.806172 21.601088,-18.7383 1.041016,8.06788 -19.77931,18.7383 -19.77931,18.7383 0,0 23.943376,-7.80763 23.162611,-1.30127 -0.780761,6.50635 -30.449726,7.54736 -30.449726,7.54736 z"
         id="path9" />
      <path
         style="fill:#ff7f2a;stroke:#edff00;stroke-width:0"
         d="m 65.84428,129.86677 c 0,0 -23.943376,-2.86279 -18.738294,-10.14991 5.205082,-7.28711 18.478039,8.84864 18.478039,8.84864 0,0 -22.660908,-21.10427 -14.313973,-23.42286 18.738293,-5.205083 14.834483,23.42286 14.834483,23.42286 0,0 -9.239197,-40.331584 -10e-7,-39.038101 13.012705,1.821772 1.561524,38.257341 1.561524,38.257341 0,0 5.725591,-35.6548 13.533211,-26.54591 9.824979,11.46247 -11.971685,26.54591 -11.971685,26.54591 0,0 21.81045,-24.08351 21.080579,-14.31398 -1.197584,16.02999 -21.668338,15.86676 -21.861343,15.09474 0,0 27.784278,-21.36603 20.820327,-6.50635 -6.407379,13.67206 -23.422867,7.80762 -23.422867,7.80762 z"
         id="path8"
         sodipodi:nodetypes="cscscscscscsc" />
      <rect
         style="fill:#803300;stroke:#edff00;stroke-width:0"
         id="rect10"
         width="41.900906"
         height="9.1088924"
         x="25.244646"
         y="123.88094"
         ry="1.8217785" />
      <rect
         style="fill:#803300;stroke:#edff00;stroke-width:0"
         id="rect10-9"
         width="41.900906"
         height="9.1088924"
         x="66.66301"
         y="124.30222"
         ry="1.8217785" />
    </g>
    <path
       style="fill:#c8beb7;stroke:#edff00;stroke-width:0"
       d="m 30.744089,73.274189 73.254891,-1.132495 c 0,0 3.87005,12.834926 8.84586,6.417463 4.9758,-6.417463 -1.93504,-11.702431 -1.93504,-11.702431 0,0 5.52867,-10.947433 1.93504,-13.967415 -3.59363,-3.019984 -7.74015,6.794957 -9.67516,6.794957 -1.93504,0 -72.702023,1.132495 -72.702023,1.132495 0,0 -3.593635,-14.344918 -7.463705,-8.304951 -3.87007,6.039962 1.935034,12.834923 1.935034,12.834923 0,0 -7.463705,14.722413 -1.105735,14.344915 6.357971,-0.377497 6.910838,-6.417461 6.910838,-6.417461 z"
       id="path12"
       sodipodi:nodetypes="ccscsscscsc" />
  </g>
</svg>
